# xmcd
# 
# Track frame offsets:
#     150
#     15717
#     28337
#     40770
#     58297
#     71900
#     81782
#     98550
#     115580
#     135755
#     155655
#     169690
#     190225
#     208910
# 
# Disc length: 3017
# 
# Revision: 1
# Processed by: cddbd v1.5.2PL0 Copyright (c) Steve Scherf et al.
# Submitted via: BonkEnc v1.0.8
# 
DISCID=bd0bc70e
DTITLE=Cabrel - 77-87
DYEAR=1987
DGENRE=Chanson
TTITLE0=Petite Marie
TTITLE1=Les Murs De Poussière
TTITLE2=Je L'Aime A Mourir
TTITLE3=C'Etait L'Hiver
TTITLE4=La Dame De Haute-Savoie
TTITLE5=Je Pense Encore A Toi
TTITLE6=Il Faudra Leur Dire
TTITLE7=Question D'Equilibre
TTITLE8=La Fille Qui M'Accompagne
TTITLE9=Répondez-Moi
TTITLE10=L'Encre De Tes Yeux
TTITLE11=Encore Et Encore
TTITLE12=Je Te Suivrai
TTITLE13=L'Enfant Qui Dort
EXTD=
EXTT0=
EXTT1=
EXTT2=
EXTT3=
EXTT4=
EXTT5=
EXTT6=
EXTT7=
EXTT8=
EXTT9=
EXTT10=
EXTT11=
EXTT12=
EXTT13=
PLAYORDER=
